# xmcd
#
# Track frame offsets:
#	225
#	7998
#	17624
#	24371
#	33695
#	48128
#	62007
#	72400
#	90650
#	101401
#	116084
#	133089
#	147790
#	166953
#	179197
#	188759
#	201697
#	214941
#	225249
#	237285
#
# Disc length: 3296
#
# Revision: 2
# Processed by: cddbd v1.5.1PL0 Copyright (c) Steve Scherf et al.
# Submitted via: audiograbber 1.83.01
# Normalized: r1:DSETVAR1,TDELIM( - )
#
DISCID=190cdd14
DTITLE=Various Artist - Country Legends 3
DYEAR=1900
DGENRE=
TTITLE0=Willie Nelson - If you've got the money, honey
TTITLE1=Jim Reeves - I am getting better
TTITLE2=Don Williams - Lord i hope this day is good
TTITLE3=Loretta lynn - First city
TTITLE4=Jerry Lee Lewis - What's made milwaukee famous
TTITLE5=Barbara Fairchild and Buddy Owens - Crazy love
TTITLE6=Patsy Cline - Pick me up on your way down
TTITLE7=Tom T. Hall - I like beer
TTITLE8=Dolly Parton - It wasn't god who made honky tonk angels
TTITLE9=Loretta Lynn - Coalminer's daughter
TTITLE10=Johnny Cash - Sunday morning coming down
TTITLE11=George Jones - Family bible
TTITLE12=Branda Lee - Saved
TTITLE13=Jim Reeves - Four walls
TTITLE14=George Jones - Lonely street
TTITLE15=Billie Jo Spears - Dallas
TTITLE16=Dottie West - D.I.V.O.R.C.E.
TTITLE17=Jan Howard - I wish i could fall in love
TTITLE18=Anne Murray - The last thing on my mind
TTITLE19=Jim Reeves - He'll have to go
EXTD=
EXTT0=
EXTT1=
EXTT2=
EXTT3=
EXTT4=
EXTT5=
EXTT6=
EXTT7=
EXTT8=
EXTT9=
EXTT10=
EXTT11=
EXTT12=
EXTT13=
EXTT14=
EXTT15=
EXTT16=
EXTT17=
EXTT18=
EXTT19=
PLAYORDER=
